<svg id="finance" enable-background="new 0 0 300 300" height="50" viewBox="0 0 300 300" width="50" xmlns="http://www.w3.org/2000/svg"><g><circle cx="44" cy="44" r="4"/><circle cx="60" cy="44" r="4"/><circle cx="76" cy="44" r="4"/><path d="m160 220c23.852 0 48-6.576 48-19.145v-36.246c0-12.617-24.148-19.219-48-19.219s-48 6.602-48 19.219v36.246c0 12.569 24.148 19.145 48 19.145zm0-8c-25.883 0-40-7.361-40-11.145v-6.738c9.061 5.366 24.571 8.145 40 8.145s30.939-2.779 40-8.145v6.738c0 3.784-14.117 11.145-40 11.145zm40-28.957c0 3.809-14.117 11.219-40 11.219s-40-7.41-40-11.219v-7.361c9.061 5.365 24.571 8.144 40 8.144s30.939-2.779 40-8.144zm-40-29.652c25.883 0 40 7.41 40 11.219 0 3.807-14.117 11.217-40 11.217s-40-7.41-40-11.217c0-3.809 14.117-11.219 40-11.219z"/><path d="m243.527 64h-51.527v-8c0-2.209-1.789-4-4-4s-4 1.791-4 4v8h-48v-8c0-2.209-1.789-4-4-4s-4 1.791-4 4v8h-51.527c-9.082 0-16.473 7.391-16.473 16.475v163.051c0 9.083 7.391 16.474 16.473 16.474h167.055c9.082 0 16.473-7.391 16.473-16.475v-163.05c-.001-9.084-7.392-16.475-16.474-16.475zm-167.054 8h51.527v13.11c-2.381 1.386-4 3.937-4 6.89 0 4.418 3.582 8 8 8s8-3.582 8-8c0-2.954-1.619-5.505-4-6.89v-13.11h48v13.11c-2.381 1.386-4 3.937-4 6.89 0 4.418 3.582 8 8 8s8-3.582 8-8c0-2.954-1.619-5.505-4-6.89v-13.11h51.527c4.672 0 8.473 3.801 8.473 8.475v31.525h-184v-31.525c0-4.674 3.801-8.475 8.473-8.475zm7.527 48h152v110.064c0 3.273-2.664 5.936-5.938 5.936h-140.124c-3.273 0-5.938-2.662-5.938-5.936zm159.527 132h-167.054c-4.672 0-8.473-3.801-8.473-8.475v-123.525h8v110.064c0 7.684 6.254 13.936 13.938 13.936h140.125c7.684 0 13.938-6.252 13.938-13.936v-110.064h8v123.525c-.001 4.674-3.802 8.475-8.474 8.475z"/></g></svg>