<svg id="Capa_1" enable-background="new 0 0 512 512" height="40" viewBox="0 0 512 512" width="40" xmlns="http://www.w3.org/2000/svg"><path d="m145 240h-70c-8.284 0-15 6.716-15 15s6.716 15 15 15h70c8.284 0 15-6.716 15-15s-6.716-15-15-15z"/><path d="m145 180h-70c-8.284 0-15 6.716-15 15s6.716 15 15 15h70c8.284 0 15-6.716 15-15s-6.716-15-15-15z"/><path d="m497 342h-15v-35c0-26.837-12.515-50.792-32-66.381v-185.619c0-30.327-24.673-55-55-55h-340c-30.327 0-55 24.673-55 55v220c0 30.327 24.673 55 55 55h257v12h-15c-8.284 0-15 6.716-15 15v140c0 8.284 6.716 15 15 15h200c8.284 0 15-6.716 15-15v-140c0-8.284-6.716-15-15-15zm-45-35v35h-110v-35c0-30.327 24.673-55 55-55s55 24.673 55 55zm-422-252c0-13.785 11.215-25 25-25h340c13.785 0 25 11.215 25 25v5h-390zm0 35h390v30h-390zm25 210c-13.785 0-25-11.215-25-25v-125h390v75.188c-7.321-2.061-15.029-3.188-23-3.188-44.51 0-81.114 34.396-84.688 78zm427 182h-170v-110h170z"/><path d="m397 457c8.284 0 15-6.716 15-15v-30c0-8.284-6.716-15-15-15s-15 6.716-15 15v30c0 8.284 6.716 15 15 15z"/></svg>